<svg width="109" height="120" viewBox="0 0 109 120" fill="none" xmlns="http://www.w3.org/2000/svg">
<path d="M7.62528 50.6575L19.9996 37.6064L20.193 37.7998L20.3863 37.7031L24.35 53.171L56.736 19.915L60.0229 23.5886L59.8296 23.782L76.941 43.2136L90.4754 34.2228L92.4089 37.5098L108.747 56.458L105.943 39.2499C105.943 39.2499 105.943 39.2499 105.943 39.1532C105.943 28.519 110.1 13.8245 101.11 5.22043C99.1761 3.38361 95.9859 2.03017 92.989 0.966746C89.122 -0.386699 84.4816 -0.193349 80.6146 0.773397C76.1676 1.83682 71.8172 4.06033 67.7569 6.28385C63.6966 8.60404 59.4429 11.5043 54.6091 12.181C49.5821 12.8577 45.135 10.3442 40.978 7.92732C31.3106 2.41687 19.903 -3.48029 9.17208 2.90024C8.01198 3.57696 6.94856 4.35036 5.98182 5.3171C-3.00892 13.9211 0.0846648 28.6157 2.79155 39.2499C2.9849 39.3466 5.11174 44.3737 7.62528 50.6575Z" fill="url(#paint0_radial_13_74)"/>
<path d="M33.5 52L53 65L72 46.5L56 30L33.5 52Z" fill="white"/>
<path d="M77.1343 49.2073L76.4575 49.8841L56.6392 27.3589L20.5796 62.7418L17.196 47.0805L10.6221 54.3311L2.40479 64.5786L2.59814 64.8686L11.2022 59.9382C11.5889 60.905 11.9868 62.0622 12.3735 63.0289C14.4037 68.6361 15.8426 73.666 15.8426 75.7929C15.8426 77.1463 15.8426 78.4998 15.7459 79.8532C15.5525 86.8138 15.3592 93.871 15.9392 100.832C16.1326 103.152 16.4226 105.569 16.8093 107.889C17.196 109.919 17.6794 111.949 18.4528 113.883C19.2262 115.816 20.0962 117.363 21.2563 118.426C22.2231 119.296 23.2865 119.877 24.5433 119.973C28.5069 120.36 30.6338 116.493 32.1806 113.013C35.5642 105.085 37.691 96.6746 41.268 88.8439C42.7181 85.6537 44.6516 81.98 48.0352 80.2399C50.9354 78.7898 54.8024 78.7898 57.606 80.4333C62.9231 83.5268 65.1466 90.7774 67.1768 96.2879C68.7236 100.542 70.1737 104.795 71.8172 108.952C73.1706 112.336 74.8141 116.3 77.7143 118.716C78.6811 119.49 79.9378 119.973 81.1946 119.876C83.9982 119.586 85.9317 117.266 87.2851 113.786C88.0585 111.853 88.5419 109.822 88.9286 107.792C89.3153 105.472 89.6053 103.055 89.7986 100.735C90.3787 93.7743 90.1853 86.7171 89.992 79.7565C89.992 78.4031 89.8953 77.0496 89.8953 75.6962C89.8953 69.509 93.569 63.7085 95.9858 58.1981C96.7592 56.3613 106.697 64.3657 107.374 62.5289L89.2186 41.0867L77.1343 49.2073ZM60.0229 47.2739L54.8024 58.0047L48.8086 46.7905L38.1744 49.4007L56.3492 31.6126L70.8504 46.2104L60.0229 47.2739Z" fill="#5F5F5F"/>
<path d="M75.3735 56.0289L88.3735 46.5289L98.8735 57.5289L91.3735 54.0289L87.8735 63.0289L85.3735 53.5289L75.3735 56.0289Z" fill="#F5F5F5"/>
<path d="M8.37354 59.0289L16.3735 50.5289L19.3735 62.5289L16.3735 57.0289L14.3735 61.5289L12.8735 56.5289L8.37354 59.0289Z" fill="white"/>
<defs>
<radialGradient id="paint0_radial_13_74" cx="0" cy="0" r="1" gradientUnits="userSpaceOnUse" gradientTransform="translate(13.3735 10.5289) rotate(21.7368) scale(82.3559 47.9898)">
<stop stop-color="#FDFDFD"/>
<stop offset="1" stop-color="#45B9D2"/>
</radialGradient>
</defs>
</svg>
